<?xml version="1.0" encoding="utf-8"?>
<!-- Generator: Adobe Illustrator 24.0.1, SVG Export Plug-In . SVG Version: 6.00 Build 0)  -->
<svg version="1.1" baseProfile="tiny" id="Layer_1" xmlns="http://www.w3.org/2000/svg" xmlns:xlink="http://www.w3.org/1999/xlink"
	 x="0px" y="0px" viewBox="0 0 800 800" xml:space="preserve">
<polygon fill="none" stroke="#000000" stroke-width="10" stroke-miterlimit="10" points="414.54,320.61 353.45,320.61 322.9,388.61 
	353.45,456.6 414.54,456.6 445.08,388.61 "/>
<polygon fill="none" stroke="#000000" stroke-width="10" stroke-miterlimit="10" points="645.46,320.61 584.37,320.61 
	553.82,388.61 584.37,456.6 645.46,456.6 676,388.61 "/>
<g>
	<path d="M452.46,329.5c26.15-2.16,52.31-4.31,78.46-6.47c7.39-0.61,14.78-1.22,22.17-1.83c-2.12-5.12-4.24-10.24-6.36-15.36
		c-11.09,9.76-22.05,19.67-32.65,29.96c-10.71,10.4-21.06,21.18-30.79,32.5c-5.35,6.23-10.49,12.64-15.48,19.17
		c-4.55,5.97-9.33,12.03-12.92,18.64c-4.34,8-7.02,17.37-4.47,26.41c1.12,3.98,3.24,7.73,6.16,10.66c2.82,2.84,6.17,4.66,9.87,6.06
		c6.71,2.54,14.17,1.79,20.99,0.19c7.3-1.72,14.22-4.7,21.51-6.49c1.76-0.43,3.53-0.78,5.32-1.03c-0.8,0.11-1.6,0.21-2.39,0.32
		c2.61-0.34,5.19-0.46,7.8-0.11c-0.8-0.11-1.6-0.21-2.39-0.32c2.3,0.34,4.52,0.96,6.66,1.86c-0.72-0.3-1.43-0.6-2.15-0.91
		c2.19,0.94,4.24,2.14,6.13,3.59c-0.61-0.47-1.21-0.94-1.82-1.41c1.74,1.37,3.3,2.93,4.66,4.68c-0.47-0.61-0.94-1.21-1.41-1.82
		c1.24,1.64,2.27,3.4,3.09,5.29c-0.3-0.72-0.6-1.43-0.91-2.15c0.83,2,1.38,4.08,1.68,6.22c-0.11-0.8-0.21-1.6-0.32-2.39
		c0.12,0.96,0.19,1.91,0.21,2.88c0.12,4.7,4.06,9.22,9,9c4.78-0.21,9.13-3.96,9-9c-0.3-12.18-7.02-23.36-17.74-29.22
		c-5.02-2.75-10.6-4.34-16.33-4.52c-6.41-0.19-12.94,1.51-19.01,3.44c-6.7,2.13-13.3,4.69-20.3,5.66c0.8-0.11,1.6-0.21,2.39-0.32
		c-2.19,0.28-4.36,0.33-6.55,0.06c0.8,0.11,1.6,0.21,2.39,0.32c-1.82-0.25-3.6-0.7-5.3-1.39c0.72,0.3,1.43,0.6,2.15,0.91
		c-1.41-0.6-2.73-1.35-3.95-2.29c0.61,0.47,1.21,0.94,1.82,1.41c-0.98-0.78-1.85-1.66-2.62-2.65c0.47,0.61,0.94,1.21,1.41,1.82
		c-0.8-1.07-1.44-2.2-1.97-3.43c0.3,0.72,0.6,1.43,0.91,2.15c-0.59-1.47-0.97-2.98-1.18-4.55c0.11,0.8,0.21,1.6,0.32,2.39
		c-0.21-1.83-0.17-3.65,0.08-5.48c-0.11,0.8-0.21,1.6-0.32,2.39c0.39-2.56,1.15-5.01,2.14-7.39c-0.3,0.72-0.6,1.43-0.91,2.15
		c1.89-4.38,4.49-8.34,7.23-12.22c2.9-4.1,5.89-8.14,8.96-12.12c-0.47,0.61-0.94,1.21-1.41,1.82
		c17.49-22.61,37.58-43.02,58.63-62.32c5.77-5.3,11.62-10.51,17.5-15.69c2.69-2.37,3.18-6.72,1.86-9.83
		c-1.29-3.06-4.69-5.82-8.22-5.53c-26.15,2.16-52.31,4.31-78.46,6.47c-7.39,0.61-14.78,1.22-22.17,1.83
		c-2.42,0.2-4.6,0.87-6.36,2.64c-1.56,1.56-2.74,4.12-2.64,6.36c0.1,2.33,0.87,4.74,2.64,6.36
		C447.77,328.41,450.11,329.7,452.46,329.5L452.46,329.5z"/>
</g>
<g>
	<path d="M297.25,390.11c1.93,0,1.93-3,0-3C295.31,387.11,295.31,390.11,297.25,390.11L297.25,390.11z"/>
</g>
<g>
	<path d="M212.11,322.07c-8.15,29.47-1.25,59.75-0.04,89.58c0.35,8.52,0.2,17.07-0.92,25.53c0.11-0.8,0.21-1.6,0.32-2.39
		c-0.99,7.23-2.79,14.33-5.63,21.06c0.3-0.72,0.6-1.43,0.91-2.15c-1.92,4.49-4.27,8.78-7.23,12.67c0.47-0.61,0.94-1.21,1.41-1.82
		c-2.04,2.64-4.35,5.06-7,7.1c0.61-0.47,1.21-0.94,1.82-1.41c-1.91,1.45-3.97,2.68-6.18,3.63c0.72-0.3,1.43-0.6,2.15-0.91
		c-0.3,0.12-0.6,0.24-0.9,0.36c2.92,5.01,5.84,10.03,8.76,15.04c1.01-0.85,2.03-1.68,3.07-2.49c-0.61,0.47-1.21,0.94-1.82,1.41
		c7.55-5.78,16.03-10.08,24.76-13.78c-0.72,0.3-1.43,0.6-2.15,0.91c13.55-5.71,27.69-10.19,40.49-17.55
		c12.93-7.43,24.37-17.7,31.75-30.78c8.16-14.47,11.22-31.38,11.42-47.83c0.2-15.73-2.16-31.71-6.6-46.79
		c-4.16-14.12-10.26-27.97-18.66-40.1c-8.37-12.09-18.9-22.96-31.9-30.06c-6.6-3.6-13.81-6.39-21.2-7.84
		c-4-0.78-8.09-1.3-12.16-1.44c-4.09-0.14-8.11,0.24-12.16,0.79c-14.58,1.99-28.28,9.31-38.61,19.72
		c-10.05,10.13-17.15,22.87-21.8,36.28c-4.7,13.54-6.74,28.4-5.54,42.7c0.34,4.07,0.9,8.14,1.69,12.15
		c0.42,2.12,2.33,4.32,4.14,5.38c1.93,1.13,4.77,1.61,6.94,0.91c4.93-1.59,7.26-6.11,6.29-11.07c-0.35-1.77-0.64-3.55-0.89-5.34
		c0.11,0.8,0.21,1.6,0.32,2.39c-1.1-8.31-1.02-16.74,0.07-25.05c-0.11,0.8-0.21,1.6-0.32,2.39c1.19-8.81,3.52-17.44,6.96-25.64
		c-0.3,0.72-0.6,1.43-0.91,2.15c2.97-7.02,6.74-13.69,11.41-19.73c-0.47,0.61-0.94,1.21-1.41,1.82c3.49-4.48,7.44-8.57,11.92-12.06
		c-0.61,0.47-1.21,0.94-1.82,1.41c4.15-3.2,8.68-5.86,13.5-7.91c-0.72,0.3-1.43,0.6-2.15,0.91c4.81-2,9.84-3.36,15.01-4.06
		c-0.8,0.11-1.6,0.21-2.39,0.32c5.25-0.67,10.54-0.65,15.79,0.03c-0.8-0.11-1.6-0.21-2.39-0.32c5.72,0.78,11.28,2.33,16.6,4.55
		c-0.72-0.3-1.43-0.6-2.15-0.91c5.51,2.35,10.68,5.39,15.44,9.03c-0.61-0.47-1.21-0.94-1.82-1.41c6.06,4.68,11.4,10.2,16.09,16.25
		c-0.47-0.61-0.94-1.21-1.41-1.82c6.38,8.28,11.51,17.46,15.58,27.07c-0.3-0.72-0.6-1.43-0.91-2.15
		c5.18,12.34,8.63,25.37,10.43,38.63c-0.11-0.8-0.21-1.6-0.32-2.39c1.57,11.76,1.88,23.73,0.32,35.51c0.11-0.8,0.21-1.6,0.32-2.39
		c-1.03,7.53-2.84,14.95-5.76,21.97c0.3-0.72,0.6-1.43,0.91-2.15c-2.26,5.34-5.16,10.36-8.7,14.95c0.47-0.61,0.94-1.21,1.41-1.82
		c-3.75,4.8-8.12,9.04-12.93,12.76c0.61-0.47,1.21-0.94,1.82-1.41c-7.65,5.86-16.22,10.32-25.07,14.06c0.72-0.3,1.43-0.6,2.15-0.91
		c-14.43,6.07-29.6,10.77-43.02,18.99c-4.35,2.66-8.46,5.71-12.35,9.01c-1.47,1.25-2.23,3.34-2.48,5.17
		c-0.26,1.92-0.01,4.06,1.07,5.74c0.84,1.3,1.93,2.39,3.23,3.23c1.74,1.12,4.96,1.67,6.94,0.91c4.99-1.92,9.27-4.52,13.23-8.13
		c3.56-3.25,6.58-7.21,9.11-11.3c5.18-8.39,8.56-18.11,10.27-27.79c4.1-23.08,0.61-46.18-1.22-69.28
		c-0.98-12.37-1.41-24.86,0.23-37.2c-0.11,0.8-0.21,1.6-0.32,2.39c0.58-4.23,1.41-8.41,2.54-12.52c1.25-4.53-1.55-9.99-6.29-11.07
		C218.42,314.7,213.45,317.21,212.11,322.07L212.11,322.07z"/>
</g>
</svg>
